<svg width="140" height="52" viewBox="0 44 140 52" fill="none" xmlns="http://www.w3.org/2000/svg">
<path fill-rule="evenodd" clip-rule="evenodd" d="M132.061 71.5845C132.05 71.5955 132.05 71.6065 132.039 71.6176C131.712 72.0883 131.366 72.4709 130.983 72.8075C130.534 73.1881 130.052 73.5136 129.546 73.7729C129.04 74.0304 128.512 74.2325 127.975 74.3777C127.436 74.5139 126.897 74.5911 126.368 74.5911C125.539 74.5911 124.762 74.4108 124.067 74.0635C123.371 73.7157 122.775 73.2561 122.293 72.6954C121.811 72.1454 121.43 71.5055 121.16 70.8084C120.891 70.1135 120.766 69.3963 120.766 68.6661C120.766 67.5776 120.922 66.6011 121.261 65.7477C121.596 64.8854 122.068 64.1441 122.674 63.5503C123.27 62.9545 123.988 62.4838 124.786 62.1694C125.594 61.8546 126.47 61.6967 127.414 61.6967C127.907 61.6967 128.402 61.7536 128.884 61.8659C129.366 61.9891 129.815 62.1453 130.209 62.3366C130.613 62.539 130.972 62.7873 131.252 63.0666C131.399 63.212 131.511 63.359 131.623 63.5155C132.006 64.1223 131.791 64.6702 131.681 64.8726V64.8964C131.555 65.0875 131.41 65.255 131.231 65.4005C131.062 65.5346 130.871 65.6595 130.646 65.7588C130.646 65.7588 130.624 65.7718 130.613 65.7718C130.591 65.7808 130.567 65.7939 130.534 65.8046C130.534 65.8046 130.523 65.816 130.512 65.816C130.378 65.8601 130.253 65.8839 130.118 65.8839C129.749 65.8839 129.48 65.7036 129.333 65.5694C129.299 65.5584 129.276 65.5346 129.255 65.5125C129.232 65.4905 129.209 65.4684 129.185 65.4443C129.176 65.4222 129.165 65.4112 129.154 65.3891C129.007 65.266 128.851 65.1429 128.67 65.0416C128.49 64.9405 128.289 64.8505 128.052 64.7951C127.828 64.7271 127.548 64.7051 127.257 64.7051C126.874 64.7051 126.494 64.7733 126.1 64.9074C125.739 65.0416 125.391 65.266 125.101 65.5694C124.797 65.8839 124.538 66.3104 124.348 66.8255C124.146 67.3531 124.043 68.0262 124.043 68.8226C124.043 69.2381 124.122 69.6205 124.269 69.957C124.416 70.2935 124.606 70.5732 124.841 70.8084C125.077 71.0456 125.336 71.2131 125.629 71.3362C125.92 71.4596 126.199 71.5165 126.47 71.5165C126.795 71.5165 127.099 71.4834 127.368 71.4262C127.627 71.3603 127.885 71.248 128.131 71.09C128.402 70.9207 128.692 70.6963 128.974 70.4167C129.13 70.2715 129.288 70.0912 129.469 69.9001C129.513 69.856 129.546 69.8098 129.59 69.7657L129.625 69.7218C129.625 69.7218 129.636 69.7108 129.647 69.6977C129.929 69.4184 130.277 69.2712 130.624 69.2712C130.814 69.2712 130.983 69.3061 131.163 69.3964C131.366 69.5195 131.546 69.6426 131.681 69.7988C131.861 69.9791 131.995 70.2035 132.095 70.4501L132.105 70.4721C132.152 70.597 132.185 70.7201 132.207 70.8656V70.9445C132.22 70.9556 132.22 70.9776 132.207 70.9887C132.22 70.9997 132.22 71.0107 132.22 71.0238C132.207 71.2131 132.163 71.3934 132.061 71.5845ZM118.307 70.8984C117.891 71.7404 117.352 72.4486 116.692 73.0093C116.039 73.5592 115.286 73.9619 114.478 74.2322C113.671 74.4898 112.863 74.6257 112.064 74.6257C111.246 74.6257 110.482 74.4677 109.773 74.153C109.078 73.8498 108.449 73.414 107.932 72.8513C107.416 72.2903 107.001 71.6063 106.708 70.8211C106.406 70.0467 106.259 69.1606 106.259 68.1949C106.259 67.1504 106.45 66.2091 106.809 65.3888C107.17 64.5703 107.652 63.8755 108.259 63.3018C108.853 62.7298 109.549 62.2922 110.335 61.9888C111.109 61.6964 111.93 61.5399 112.749 61.5399C113.636 61.5399 114.478 61.6964 115.231 61.9998C115.983 62.3143 116.646 62.7518 117.196 63.3018C117.746 63.8645 118.184 64.5355 118.475 65.3116C118.778 66.0729 118.923 66.9484 118.923 67.8917C118.923 69.0372 118.71 70.0468 118.307 70.8984ZM104.226 73.671C104.215 73.682 104.215 73.6931 104.215 73.6931C104.171 73.761 104.125 73.8179 104.081 73.8844C103.89 74.1306 103.654 74.322 103.375 74.4692C103.106 74.6016 102.811 74.6916 102.497 74.7157C102.464 74.7264 102.42 74.7264 102.387 74.7264C102.193 74.7264 102.004 74.6806 101.813 74.6144C101.803 74.6016 101.79 74.6016 101.779 74.5905C101.533 74.4561 101.343 74.1878 101.229 73.772L101.218 73.7389L101.205 73.682L101.194 73.6158C101.06 72.9979 100.96 72.2349 100.891 71.3374C100.848 70.7636 100.802 70.1127 100.758 69.3955C100.758 69.2393 100.635 69.2393 100.589 69.3955L100.309 70.2709C99.9817 71.3264 99.5897 72.4021 99.1519 73.4576C99.1519 73.4686 99.1519 73.4799 99.1406 73.4799C98.9622 73.8513 98.7249 74.1196 98.4233 74.2778C98.412 74.2871 98.3992 74.2871 98.3881 74.2999C98.1749 74.3899 97.9503 74.4451 97.7257 74.4782C97.6026 74.5023 97.4901 74.5023 97.3652 74.5023H97.3338H97.2089L97.1758 74.4912H97.1406C96.6807 74.4009 96.2999 74.0296 95.9852 73.3676C95.8859 73.11 95.7827 72.8528 95.6927 72.5821C95.4812 71.9994 95.2897 71.3815 95.0983 70.7195L94.6825 69.3055C94.6494 69.1821 94.5593 69.1821 94.5373 69.2724C94.48 69.7889 94.469 70.293 94.4931 70.7544C94.5152 71.3153 94.5262 71.8301 94.5262 72.29V72.7625C94.5262 73.3914 94.3458 73.8734 93.976 74.1637C93.7735 74.333 93.5602 74.4561 93.3246 74.5354C93.1114 74.6144 92.8868 74.6475 92.6622 74.6475H92.4708C92.3714 74.6364 92.2575 74.6144 92.1451 74.5685C91.8656 74.4782 91.3926 74.1989 91.3026 73.2555V73.2334V73.2L91.2933 73.121C91.2822 72.8528 91.2822 72.5604 91.2822 72.268C91.2933 71.6629 91.3374 71.045 91.4037 70.4161C91.8415 66.2988 92.1451 65.1548 92.3807 64.2228L92.3917 64.1766C92.528 63.6839 92.8206 62.7643 93.2805 62.2585C93.2805 62.2475 93.2915 62.2475 93.3008 62.2367C93.3136 62.2257 93.3246 62.2126 93.3357 62.2033C93.3598 62.1795 93.3909 62.1464 93.4257 62.1133C93.7624 61.832 94.1895 61.6978 94.6936 61.6978C94.964 61.6978 95.1996 61.7768 95.3908 61.933C95.5474 62.0564 95.6816 62.2126 95.7827 62.3927C95.8731 62.5509 95.9411 62.7184 95.9852 62.8764L96.0753 63.1688C96.0753 63.1891 96.0863 63.2019 96.0863 63.2132C96.1215 63.4263 96.1877 63.7277 96.2667 64.0994C96.3568 64.469 96.4803 64.9397 96.6476 65.5027L97.2199 67.5215L97.5346 68.5883C97.5694 68.7114 97.704 68.7224 97.7478 68.5883L97.9282 67.9704L98.0514 67.5436L98.5116 65.9272C98.6679 65.3793 98.8373 64.8624 99.0174 64.3918C99.1868 63.908 99.3524 63.4815 99.5107 63.1119C99.5456 63.0329 99.5787 62.9667 99.6008 62.8985C99.8143 62.4278 100.084 62.1133 100.41 61.9551H100.431L100.466 61.933C100.51 61.922 100.556 61.9002 100.611 61.8761C100.848 61.7989 101.095 61.7309 101.343 61.6868C101.5 61.6647 101.654 61.652 101.813 61.652C101.881 61.652 101.948 61.652 102.015 61.6647H102.048C102.508 61.7309 102.902 62.0564 103.137 62.5509C103.251 62.7974 103.351 63.066 103.43 63.3363C103.566 63.8291 103.676 64.379 103.755 64.9527C103.835 65.5244 103.89 66.1406 103.936 66.7805C103.969 67.4094 104.002 68.0366 104.035 68.6655C104.081 69.4524 104.125 70.2378 104.182 70.9881C104.226 71.5618 104.283 72.1007 104.374 72.5932V72.6283C104.407 72.8397 104.44 73.3014 104.226 73.671ZM88.9912 65.0082C88.9912 65.5802 88.9801 66.1853 88.9801 66.8252C88.9671 67.4873 88.9671 68.1162 88.945 68.6882C88.936 69.284 88.9229 69.8116 88.9121 70.2825V71.3031C88.9121 71.7517 88.9121 72.1452 88.9229 72.4927C88.9229 72.5479 88.9229 72.5938 88.936 72.6269V72.7172V72.7503V72.7961V72.8182L88.945 72.8844V73.0316C88.9671 73.4361 88.9121 73.7378 88.7776 73.9622C88.7666 73.975 88.7666 73.986 88.7556 73.9971C88.6986 74.0743 88.6324 74.1533 88.531 74.2325C88.3378 74.4015 88.1152 74.5342 87.8686 74.6132C87.6333 74.7032 87.3849 74.7491 87.1382 74.7491H87.0941C86.8457 74.7491 86.6211 74.7032 86.441 74.6019C86.4189 74.6019 86.4096 74.5908 86.3968 74.5798C86.1943 74.4457 86.036 74.2436 85.9145 73.975C85.8245 73.7505 85.7344 73.4805 85.6661 73.1658C85.6109 72.8623 85.5668 72.5258 85.5429 72.1562C85.5209 71.8086 85.5098 71.4262 85.5098 71.0345C85.5098 70.4846 85.5319 69.8447 85.5668 69.1495C85.5761 68.9475 85.5889 68.723 85.5999 68.4986C85.6109 68.3072 85.4971 68.3296 85.4308 68.4417C85.1383 68.9251 84.8236 69.4181 84.4979 69.9347C84.1391 70.4956 83.7693 71.0676 83.4105 71.6286C83.0389 72.1893 82.6798 72.6951 82.3545 73.1547C82.0616 73.5595 81.7932 73.9181 81.5465 74.1994C81.1988 74.637 80.7168 74.8704 80.1886 74.8704C80.0985 74.8704 80.0085 74.8614 79.9071 74.8484C79.7398 74.8153 79.6035 74.7822 79.4803 74.738C79.3348 74.6922 79.1785 74.626 79.0204 74.5339C78.5916 74.2767 78.336 73.7598 78.2898 73.0868C78.2898 72.9192 78.2805 72.7503 78.2805 72.5479C78.2566 72.011 78.2456 71.3931 78.2456 70.7201C78.2346 70.0581 78.2346 69.3391 78.2346 68.5868V66.3432C78.2346 65.6023 78.2346 64.9071 78.2456 64.2341V63.2797C78.2456 62.3825 78.6044 61.9777 78.8179 61.8215C78.829 61.8087 78.84 61.7995 78.8638 61.7867C78.8859 61.7646 78.919 61.7536 78.9522 61.7312C79.1785 61.6302 79.4141 61.5512 79.6697 61.496C79.9071 61.4499 80.1538 61.4281 80.4021 61.4281L80.4332 61.4171C80.4684 61.4171 80.5125 61.4281 80.5474 61.4281H80.5916H80.6137C80.8069 61.4391 81.4326 61.5622 81.4785 62.4725C81.4785 62.6177 81.4913 62.7742 81.4913 62.9432C81.5117 63.3921 81.5227 63.8976 81.5227 64.4127C81.5355 64.9402 81.5355 65.4902 81.5355 66.0619C81.5355 66.6249 81.5355 67.1728 81.5227 67.6893V68.3958C81.5227 68.5206 81.6255 68.6109 81.7601 68.3958C82.0416 67.9138 82.3452 67.41 82.6578 66.8822C83.0296 66.2863 83.3995 65.6815 83.7803 65.0875C84.163 64.4806 84.5328 63.9307 84.8806 63.4362C85.2414 62.9432 85.5889 62.5277 85.9017 62.1911C85.9366 62.158 85.9587 62.136 85.9921 62.1011L86.027 62.0677L86.0363 62.057C86.2844 61.8546 86.61 61.6081 87.0592 61.6081C87.1493 61.6081 87.2504 61.6194 87.3387 61.6412C87.3738 61.6522 87.4087 61.6633 87.4418 61.6743L87.4639 61.6874C87.6222 61.7312 87.7785 61.7867 87.9241 61.8546C88.0583 61.9115 88.1925 61.9777 88.2939 62.046C88.3067 62.046 88.3177 62.057 88.3288 62.057C88.6086 62.2481 88.945 62.629 88.9671 63.37L88.9801 63.4141V63.5152C88.9912 63.9307 89.0022 64.4365 88.9912 65.0082ZM76.1236 73.3676C76.1126 73.3786 76.1126 73.3914 76.1126 73.3914C76.0667 73.5037 76.0097 73.5917 75.9435 73.671C75.7852 73.8844 75.5957 74.0516 75.3822 74.1989C75.1687 74.333 74.9554 74.4451 74.7198 74.5243C74.5725 74.5792 74.4383 74.6016 74.3038 74.6016C73.9781 74.6016 73.6986 74.4561 73.4833 74.1768L69.7574 69.4965C69.5549 69.25 69.2972 69.3624 69.2972 69.6199C69.2972 69.7889 69.3085 69.9803 69.3193 70.1916C69.3417 70.5743 69.3637 70.9547 69.3876 71.3484C69.4186 71.7419 69.4428 72.1225 69.4648 72.4921V72.6155V72.6376C69.5218 73.3345 69.3748 73.761 68.9497 74.0516L68.9146 74.0865C68.8797 74.1086 68.8356 74.1306 68.8024 74.1547C68.5889 74.2871 68.3536 74.4009 68.1069 74.4671C67.9044 74.5243 67.7022 74.5574 67.4777 74.5574C67.4318 74.5574 67.3763 74.5574 67.3211 74.5461C67.1758 74.5351 67.0285 74.513 66.8832 74.4671C66.8832 74.4671 66.8722 74.4561 66.8612 74.4561C66.4675 74.2999 66.265 73.9744 66.2191 73.4355C66.197 73.1431 66.1749 72.8287 66.1639 72.4811C66.129 71.8873 66.0977 71.2471 66.0739 70.5743C66.0518 69.9103 66.0297 69.2041 66.0186 68.4759C66.0076 67.768 65.9945 67.0619 65.9945 66.3778C65.9945 65.6586 66.0076 64.9748 66.0186 64.3349C66.0297 63.9522 66.0407 63.5825 66.0625 63.235C66.129 62.505 66.2761 62.2033 66.5006 61.9772C66.5117 61.9661 66.5337 61.9441 66.5465 61.933C66.6238 61.8761 66.7028 61.832 66.7821 61.7861C67.0509 61.6644 67.3655 61.5965 67.6912 61.5965C67.9376 61.5965 68.1952 61.6406 68.4988 61.7199C68.6351 61.753 69.0288 61.8761 69.1944 62.3709V62.404L69.2071 62.4278C69.2182 62.4499 69.2182 62.483 69.2292 62.5161V62.5509C69.2623 62.7181 69.2972 62.8985 69.3085 63.0881C69.3306 63.4705 69.3416 63.8749 69.3306 64.2777C69.3306 64.57 69.3085 64.8624 69.2972 65.142C69.2972 65.3003 69.3748 65.2765 69.4538 65.221L72.6423 62.3488C73.0804 61.9551 73.4171 61.7861 73.7428 61.7768H73.7538H73.7666C74.0336 61.7768 74.3169 61.854 74.5856 61.9772C74.8872 62.1244 75.1576 62.3378 75.3712 62.6171C75.3822 62.6281 75.3822 62.6281 75.3932 62.6392C75.6068 62.9667 75.6068 63.3584 75.4043 63.7277C75.3932 63.739 75.3932 63.7501 75.3822 63.7501C75.2018 64.0314 74.9775 64.3128 74.7419 64.5811C74.3831 64.9748 74.0133 65.3555 73.6086 65.703C73.2146 66.0633 72.8448 66.3871 72.4842 66.6795C72.339 66.8026 72.2045 66.9167 72.0813 67.0288C72.002 67.095 71.945 67.196 72.0482 67.3084C72.2265 67.5105 72.418 67.7239 72.6423 67.9704C73.0345 68.419 73.452 68.9117 73.877 69.4414C74.3038 69.9672 74.7198 70.5061 75.1245 71.056C75.3822 71.4036 75.6196 71.7419 75.8311 72.0656C76.2689 72.7166 76.2029 73.121 76.1236 73.3676ZM63.7502 71.6617C63.7372 71.6745 63.7261 71.6855 63.7171 71.7076C63.4025 72.1452 63.0768 72.5037 62.718 72.8072C62.2782 73.1878 61.7962 73.5133 61.2901 73.7726C60.786 74.0302 60.2579 74.2325 59.719 74.3777C59.1797 74.5136 58.6405 74.5911 58.1144 74.5911C57.2826 74.5911 56.5081 74.4108 55.8126 74.0633C55.115 73.7157 54.5209 73.2561 54.0369 72.6951C53.5549 72.1452 53.1723 71.5052 52.9036 70.8084C52.6331 70.1129 52.4986 69.3961 52.4986 68.6658C52.4986 67.5773 52.668 66.6008 53.0047 65.7495C53.3414 64.8851 53.8126 64.1441 54.4198 63.55C55.0139 62.9542 55.7333 62.4835 56.5302 62.1691C57.3396 61.8546 58.2138 61.6964 59.1577 61.6964C59.6524 61.6964 60.1457 61.7536 60.6277 61.8657C61.1117 61.9888 61.5606 62.147 61.9542 62.3384C62.3572 62.5387 62.718 62.787 62.9978 63.0663C63.064 63.1345 63.132 63.2007 63.1779 63.2687L63.211 63.3018C63.3232 63.4359 63.4135 63.5942 63.4926 63.7396C63.4926 63.7507 63.5019 63.7617 63.5019 63.7617C63.5809 63.9527 63.616 64.1331 63.616 64.3003V64.3575C63.5809 64.5596 63.5129 64.7271 63.4225 64.8851C63.3124 65.0744 63.1541 65.2547 62.9737 65.4019C62.797 65.5471 62.5928 65.6705 62.3461 65.7826C62.1678 65.8488 61.9984 65.8836 61.8293 65.8836C61.3581 65.8836 61.0766 65.5912 60.9092 65.4112L60.8871 65.3891C60.7398 65.2547 60.5835 65.1426 60.4162 65.0413C60.2358 64.9402 60.0336 64.8502 59.798 64.7951C59.5734 64.7271 59.2919 64.7051 58.9883 64.7051C58.6184 64.7051 58.2358 64.773 57.8439 64.9071C57.4741 65.0413 57.1353 65.2657 56.8448 65.5692C56.5412 65.8836 56.2835 66.3101 56.0924 66.8252C55.8899 67.3528 55.7888 68.0262 55.7888 68.8223C55.7888 69.2378 55.8678 69.6205 56.013 69.957C56.1586 70.2933 56.3515 70.5749 56.5871 70.8084C56.8227 71.0456 57.0804 71.2128 57.3709 71.338C57.6542 71.4593 57.945 71.5162 58.2138 71.5162C58.5394 71.5162 58.843 71.4831 59.1135 71.4262C59.3581 71.36 59.6286 71.2477 59.877 71.0897C60.1457 70.9222 60.4363 70.696 60.7178 70.4167C60.9092 70.2253 61.1207 70.0012 61.3581 69.7326C61.3694 69.7215 61.3694 69.7215 61.3802 69.7105C61.5036 69.5761 61.8531 69.2488 62.3461 69.2488C62.5266 69.2488 62.7049 69.295 62.8854 69.385C63.0879 69.4971 63.2773 69.6315 63.4225 69.7988C63.603 69.9901 63.7502 70.2143 63.8403 70.4625C63.8845 70.5508 63.8955 70.6298 63.9065 70.7091L63.9176 70.7308C63.9176 70.7422 63.9304 70.7532 63.9304 70.7753C63.9617 71.0787 63.9066 71.3711 63.7502 71.6617ZM50.8836 71.0331C50.6241 71.7192 50.2653 72.3351 49.7927 72.874C49.3214 73.4126 48.7494 73.8615 48.0739 74.198C47.4005 74.5345 46.6498 74.7038 45.8311 74.7038C45.336 74.7038 44.8082 74.6358 44.28 74.5014C43.7538 74.367 43.246 74.1649 42.7527 73.9184C42.2579 73.6591 41.7978 73.3464 41.3617 72.975C41.0032 72.6605 40.6644 72.2909 40.3498 71.8423C40.3498 71.8295 40.3387 71.8185 40.3294 71.8092C40.2045 71.572 40.1604 71.3475 40.1714 71.1013C40.1714 71.0903 40.1714 71.0793 40.1807 71.0682C40.1935 70.9338 40.2266 70.8089 40.2708 70.6966C40.3736 70.4503 40.5081 70.2259 40.6885 70.0476C40.8338 69.8783 41.0139 69.7442 41.2275 69.6318C41.2827 69.608 41.3379 69.5749 41.3727 69.5639C41.3951 69.5529 41.4058 69.5529 41.4279 69.5418C41.5735 69.4849 41.7094 69.4628 41.8439 69.4628C42.1124 69.4628 42.337 69.5639 42.5174 69.7773C42.5284 69.7773 42.5284 69.788 42.5412 69.7994C42.821 70.1359 43.0894 70.4172 43.3157 70.6414C43.6065 70.91 43.8753 71.1344 44.1347 71.2924C44.3831 71.4489 44.6277 71.561 44.8744 71.6179C45.1335 71.673 45.4264 71.7061 45.741 71.7061C45.9763 71.7061 46.212 71.6399 46.4697 71.561C47.2901 71.3255 47.671 70.8548 47.7944 70.4172C47.8183 70.349 47.8183 70.2921 47.8293 70.2259C47.9525 69.4739 47.6489 69.5087 47.3011 69.4739C46.5928 69.3839 45.741 69.3063 44.4383 69.3725H44.3831C43.6856 69.4187 43.246 69.0822 43.0673 68.5874C42.9901 68.363 42.9442 68.1388 42.9442 67.9033C42.9442 67.6681 43.0011 67.4327 43.1115 67.1844C43.1577 67.0831 43.2146 66.9931 43.3047 66.881C43.5955 66.5224 43.9433 66.5003 44.1789 66.4783C46.5487 66.309 47.4688 66.5003 47.4688 66.5003C47.7151 66.489 47.693 66.309 47.6489 66.1748C47.4688 65.658 46.9975 64.7826 45.8625 64.5033C45.5716 64.424 45.2791 64.3801 44.9883 64.3801C44.6847 64.3801 44.4142 64.4019 44.2027 64.4681C43.9892 64.5253 43.7849 64.6043 43.6196 64.7056C43.4502 64.8046 43.3047 64.9188 43.1687 65.0401C43.1467 65.0532 43.1356 65.0639 43.1246 65.075C43.1115 65.086 43.1005 65.0973 43.0897 65.1098C43.0804 65.1191 43.0804 65.1191 43.0676 65.1191C42.7196 65.4005 42.4401 65.5239 42.1586 65.5239C42.0923 65.5239 42.0354 65.5239 41.9671 65.5015C41.9561 65.5015 41.9433 65.5015 41.923 65.4908L41.8881 65.4797C41.8329 65.4556 41.7777 65.4336 41.7094 65.4115C41.4962 65.3105 41.2937 65.1984 41.1246 65.0532C40.9442 64.9077 40.7896 64.7277 40.6755 64.5474C40.6423 64.4812 40.6203 64.424 40.6092 64.3801L40.5982 64.345C40.5854 64.334 40.5854 64.3229 40.5744 64.3119C40.5302 64.1447 40.4512 63.694 40.7545 63.1792C40.8559 63.0338 40.968 62.8979 41.0932 62.7748C41.3727 62.4949 41.7205 62.2579 42.1124 62.0555C42.5063 61.877 42.9331 61.719 43.395 61.6069C43.8549 61.4946 44.3372 61.4394 44.832 61.4394C45.741 61.4394 46.5928 61.5959 47.3694 61.8993C48.1532 62.2028 48.8505 62.6624 49.4339 63.2344C50.0059 63.8171 50.4661 64.5364 50.7935 65.3784C51.0843 66.1528 51.2424 67.072 51.2755 68.2068C51.2976 69.2605 51.1395 70.338 50.8836 71.0331ZM139.993 67.6051C139.945 64.3581 139.604 60.6078 137.427 57.4598C135.444 54.5934 132.303 52.6886 127.557 51.4927C109.297 46.8681 76.7825 44 57.122 44C52.5427 44 48.8586 44.1562 46.1739 44.4669C40.1081 45.1562 35.7613 48.7616 33.6213 54.8846C32.329 58.5678 31.8415 63.0666 32.114 68.6257C32.2782 71.9492 32.9792 75.7967 33.9719 78.9067C34.9327 81.918 36.6058 85.9214 40.0985 85.9214C41.0799 85.9214 42.0232 85.5727 42.8006 84.9119C43.3936 84.4165 44.7559 83.9005 45.9891 83.9005C49.0228 83.9005 51.6398 85.6665 51.6055 89.1467C51.5994 89.7852 51.4925 90.003 51.3284 90.7132C51.0558 91.9092 51.3365 93.1321 52.0852 94.0764C53.4474 95.7851 55.7803 96 57.6667 96C58.0955 96 58.5415 95.9907 59.0197 95.9602C75.976 94.9794 110.007 89.5953 124.046 85.67C130.824 83.7844 134.916 81.5199 137.319 78.3431C139.877 74.9703 140.042 71.0258 139.993 67.6051Z" fill="#4DC6F4"/>
<path fill-rule="evenodd" clip-rule="evenodd" d="M26.4175 63.886C26.5333 63.1127 26.0803 62.4112 25.3855 62.131C25.3855 62.131 25.2684 62.0805 24.9895 62.0245C24.8166 61.9896 6.44299 60.208 2.8547 62.4342C0.628797 63.8134 -0.0722025 66.9727 0.0057622 69.6336C0.0934865 72.8025 1.16252 75.6007 2.92325 76.5624C4.01146 77.1468 6.41428 77.3603 9.26324 77.3603C15.7768 77.3603 24.9263 76.2755 25.7246 76.0621C26.5994 75.8298 27.114 74.9346 26.8909 74.0511C25.8549 69.0404 26.4175 63.886 26.4175 63.886Z" fill="#4DC6F4"/>
<g transform="translate(109.48, 64.67)">
<path fill-rule="evenodd" clip-rule="evenodd" d="M5.28508 0.785409C5.02579 0.527862 4.73543 0.33652 4.39687 0.200343C4.06238 0.0661979 3.70176 -9.53674e-07 3.33214 -9.53674e-07C2.89457 -9.53674e-07 2.47907 0.0661964 2.07605 0.213407C1.68262 0.347552 1.33332 0.571997 1.03164 0.85132C0.728216 1.13268 0.468927 1.49127 0.290648 1.94016C0.0993023 2.38876 0 2.92767 0 3.55658C0 4.10623 0.0662042 4.58996 0.213415 5.00371C0.34756 5.39715 0.5389 5.72264 0.774379 5.98019C0.998535 6.23948 1.28918 6.42878 1.61641 6.56322C1.94016 6.68807 2.30979 6.75428 2.70323 6.75428C3.02872 6.75428 3.39834 6.71014 3.80309 6.6091C4.19653 6.51909 4.56615 6.32948 4.91371 6.07019C5.26127 5.81265 5.55366 5.45232 5.80017 5.00371C6.0371 4.55511 6.15847 3.95001 6.15847 3.22005C6.15847 2.67012 6.06846 2.18842 5.91225 1.78395C5.75604 1.37919 5.54262 1.04267 5.28508 0.785409Z" fill="#4DC6F4"/>
</g>
</svg>
